<mxfile host="app.diagrams.net" modified="2022-08-09T08:53:59.376Z" agent="5.0 (Windows NT 10.0; Win64; x64) AppleWebKit/537.36 (KHTML, like Gecko) Chrome/102.0.5005.115 Safari/537.36 OPR/88.0.4412.75 (Edition Yx GX)" etag="FAGSuiOSDln-q8Hpztkh" version="20.2.3" type="github">
  <diagram id="dTWVQM24LLZXG_Dq3LVH" name="Страница 1">
    <mxGraphModel dx="2887" dy="1594" grid="1" gridSize="10" guides="1" tooltips="1" connect="1" arrows="1" fold="1" page="1" pageScale="1" pageWidth="827" pageHeight="1169" math="0" shadow="0">
      <root>
        <mxCell id="0" />
        <mxCell id="1" parent="0" />
        <mxCell id="zvuMkgdrvlHbQfHziqRH-13" style="edgeStyle=orthogonalEdgeStyle;rounded=0;orthogonalLoop=1;jettySize=auto;html=1;entryX=0;entryY=0.5;entryDx=0;entryDy=0;" edge="1" parent="1" source="zvuMkgdrvlHbQfHziqRH-1" target="zvuMkgdrvlHbQfHziqRH-2">
          <mxGeometry relative="1" as="geometry" />
        </mxCell>
        <mxCell id="zvuMkgdrvlHbQfHziqRH-15" style="edgeStyle=orthogonalEdgeStyle;rounded=0;orthogonalLoop=1;jettySize=auto;html=1;entryX=0;entryY=0.5;entryDx=0;entryDy=0;" edge="1" parent="1" source="zvuMkgdrvlHbQfHziqRH-1" target="zvuMkgdrvlHbQfHziqRH-14">
          <mxGeometry relative="1" as="geometry" />
        </mxCell>
        <mxCell id="zvuMkgdrvlHbQfHziqRH-17" style="edgeStyle=orthogonalEdgeStyle;rounded=0;orthogonalLoop=1;jettySize=auto;html=1;entryX=0;entryY=0.5;entryDx=0;entryDy=0;" edge="1" parent="1" source="zvuMkgdrvlHbQfHziqRH-1" target="zvuMkgdrvlHbQfHziqRH-16">
          <mxGeometry relative="1" as="geometry" />
        </mxCell>
        <mxCell id="zvuMkgdrvlHbQfHziqRH-1" value="Промо&lt;br&gt;Яндекс.Самоката" style="rounded=0;whiteSpace=wrap;html=1;" vertex="1" parent="1">
          <mxGeometry y="530" width="120" height="60" as="geometry" />
        </mxCell>
        <mxCell id="zvuMkgdrvlHbQfHziqRH-7" style="edgeStyle=orthogonalEdgeStyle;rounded=0;orthogonalLoop=1;jettySize=auto;html=1;entryX=0;entryY=0.5;entryDx=0;entryDy=0;exitX=1;exitY=0.5;exitDx=0;exitDy=0;" edge="1" parent="1" source="zvuMkgdrvlHbQfHziqRH-2" target="zvuMkgdrvlHbQfHziqRH-4">
          <mxGeometry relative="1" as="geometry">
            <mxPoint x="350" y="130" as="sourcePoint" />
          </mxGeometry>
        </mxCell>
        <mxCell id="zvuMkgdrvlHbQfHziqRH-2" value="Верхний блок" style="rounded=0;whiteSpace=wrap;html=1;" vertex="1" parent="1">
          <mxGeometry x="180" y="95" width="100" height="40" as="geometry" />
        </mxCell>
        <mxCell id="zvuMkgdrvlHbQfHziqRH-4" value="Счетчик времени до заказа" style="text;html=1;strokeColor=none;fillColor=none;align=center;verticalAlign=middle;whiteSpace=wrap;rounded=0;" vertex="1" parent="1">
          <mxGeometry x="500" y="60" width="170" height="30" as="geometry" />
        </mxCell>
        <mxCell id="zvuMkgdrvlHbQfHziqRH-102" value="" style="edgeStyle=orthogonalEdgeStyle;rounded=0;orthogonalLoop=1;jettySize=auto;html=1;" edge="1" parent="1" source="zvuMkgdrvlHbQfHziqRH-5" target="zvuMkgdrvlHbQfHziqRH-101">
          <mxGeometry relative="1" as="geometry" />
        </mxCell>
        <mxCell id="zvuMkgdrvlHbQfHziqRH-5" value="Кнопка Предзаказ" style="text;html=1;strokeColor=none;fillColor=none;align=center;verticalAlign=middle;whiteSpace=wrap;rounded=0;" vertex="1" parent="1">
          <mxGeometry x="500" y="100" width="140" height="30" as="geometry" />
        </mxCell>
        <mxCell id="zvuMkgdrvlHbQfHziqRH-104" value="" style="edgeStyle=orthogonalEdgeStyle;rounded=0;orthogonalLoop=1;jettySize=auto;html=1;" edge="1" parent="1" source="zvuMkgdrvlHbQfHziqRH-6" target="zvuMkgdrvlHbQfHziqRH-103">
          <mxGeometry relative="1" as="geometry" />
        </mxCell>
        <mxCell id="zvuMkgdrvlHbQfHziqRH-6" value="Кнопка Подробнее" style="text;html=1;align=center;verticalAlign=middle;whiteSpace=wrap;rounded=0;fillColor=none;" vertex="1" parent="1">
          <mxGeometry x="500" y="180" width="140" height="30" as="geometry" />
        </mxCell>
        <mxCell id="zvuMkgdrvlHbQfHziqRH-9" style="edgeStyle=orthogonalEdgeStyle;rounded=0;orthogonalLoop=1;jettySize=auto;html=1;exitX=1;exitY=0.5;exitDx=0;exitDy=0;" edge="1" parent="1" source="zvuMkgdrvlHbQfHziqRH-2" target="zvuMkgdrvlHbQfHziqRH-5">
          <mxGeometry relative="1" as="geometry">
            <mxPoint x="370" y="135" as="sourcePoint" />
            <mxPoint x="510" y="85" as="targetPoint" />
          </mxGeometry>
        </mxCell>
        <mxCell id="zvuMkgdrvlHbQfHziqRH-10" style="edgeStyle=orthogonalEdgeStyle;rounded=0;orthogonalLoop=1;jettySize=auto;html=1;exitX=1;exitY=0.5;exitDx=0;exitDy=0;entryX=0;entryY=0.5;entryDx=0;entryDy=0;" edge="1" parent="1" source="zvuMkgdrvlHbQfHziqRH-2" target="zvuMkgdrvlHbQfHziqRH-6">
          <mxGeometry relative="1" as="geometry">
            <mxPoint x="370" y="135" as="sourcePoint" />
            <mxPoint x="510" y="135" as="targetPoint" />
          </mxGeometry>
        </mxCell>
        <mxCell id="zvuMkgdrvlHbQfHziqRH-11" value="Текст" style="text;html=1;strokeColor=none;fillColor=none;align=center;verticalAlign=middle;whiteSpace=wrap;rounded=0;" vertex="1" parent="1">
          <mxGeometry x="500" y="140" width="140" height="30" as="geometry" />
        </mxCell>
        <mxCell id="zvuMkgdrvlHbQfHziqRH-12" style="edgeStyle=orthogonalEdgeStyle;rounded=0;orthogonalLoop=1;jettySize=auto;html=1;exitX=1;exitY=0.5;exitDx=0;exitDy=0;entryX=0;entryY=0.75;entryDx=0;entryDy=0;" edge="1" parent="1" source="zvuMkgdrvlHbQfHziqRH-2" target="zvuMkgdrvlHbQfHziqRH-11">
          <mxGeometry relative="1" as="geometry">
            <mxPoint x="370" y="135" as="sourcePoint" />
            <mxPoint x="510" y="205" as="targetPoint" />
          </mxGeometry>
        </mxCell>
        <mxCell id="zvuMkgdrvlHbQfHziqRH-21" style="edgeStyle=orthogonalEdgeStyle;rounded=0;orthogonalLoop=1;jettySize=auto;html=1;entryX=0;entryY=0.5;entryDx=0;entryDy=0;" edge="1" parent="1" source="zvuMkgdrvlHbQfHziqRH-14" target="zvuMkgdrvlHbQfHziqRH-20">
          <mxGeometry relative="1" as="geometry" />
        </mxCell>
        <mxCell id="zvuMkgdrvlHbQfHziqRH-24" style="edgeStyle=orthogonalEdgeStyle;rounded=0;orthogonalLoop=1;jettySize=auto;html=1;entryX=0;entryY=0.5;entryDx=0;entryDy=0;" edge="1" parent="1" source="zvuMkgdrvlHbQfHziqRH-14" target="zvuMkgdrvlHbQfHziqRH-23">
          <mxGeometry relative="1" as="geometry" />
        </mxCell>
        <mxCell id="zvuMkgdrvlHbQfHziqRH-25" style="edgeStyle=orthogonalEdgeStyle;rounded=0;orthogonalLoop=1;jettySize=auto;html=1;entryX=0;entryY=0.5;entryDx=0;entryDy=0;" edge="1" parent="1" source="zvuMkgdrvlHbQfHziqRH-14" target="zvuMkgdrvlHbQfHziqRH-22">
          <mxGeometry relative="1" as="geometry" />
        </mxCell>
        <mxCell id="zvuMkgdrvlHbQfHziqRH-14" value="Форма предзаказа" style="rounded=0;whiteSpace=wrap;html=1;" vertex="1" parent="1">
          <mxGeometry x="180" y="530" width="120" height="45" as="geometry" />
        </mxCell>
        <mxCell id="zvuMkgdrvlHbQfHziqRH-90" style="edgeStyle=orthogonalEdgeStyle;rounded=0;orthogonalLoop=1;jettySize=auto;html=1;entryX=0;entryY=0.5;entryDx=0;entryDy=0;" edge="1" parent="1" source="zvuMkgdrvlHbQfHziqRH-16" target="zvuMkgdrvlHbQfHziqRH-89">
          <mxGeometry relative="1" as="geometry">
            <Array as="points">
              <mxPoint x="340" y="1310" />
              <mxPoint x="340" y="1245" />
            </Array>
          </mxGeometry>
        </mxCell>
        <mxCell id="zvuMkgdrvlHbQfHziqRH-92" style="edgeStyle=orthogonalEdgeStyle;rounded=0;orthogonalLoop=1;jettySize=auto;html=1;entryX=0;entryY=0.5;entryDx=0;entryDy=0;" edge="1" parent="1" source="zvuMkgdrvlHbQfHziqRH-16" target="zvuMkgdrvlHbQfHziqRH-91">
          <mxGeometry relative="1" as="geometry" />
        </mxCell>
        <mxCell id="zvuMkgdrvlHbQfHziqRH-94" value="" style="edgeStyle=orthogonalEdgeStyle;rounded=0;orthogonalLoop=1;jettySize=auto;html=1;" edge="1" parent="1" source="zvuMkgdrvlHbQfHziqRH-16" target="zvuMkgdrvlHbQfHziqRH-91">
          <mxGeometry relative="1" as="geometry" />
        </mxCell>
        <mxCell id="zvuMkgdrvlHbQfHziqRH-16" value="Нижний блок" style="rounded=0;whiteSpace=wrap;html=1;" vertex="1" parent="1">
          <mxGeometry x="180" y="1290" width="120" height="40" as="geometry" />
        </mxCell>
        <mxCell id="zvuMkgdrvlHbQfHziqRH-20" value="Счетчик подписавшихся" style="text;html=1;strokeColor=none;fillColor=none;align=center;verticalAlign=middle;whiteSpace=wrap;rounded=0;" vertex="1" parent="1">
          <mxGeometry x="340" y="260" width="110" height="30" as="geometry" />
        </mxCell>
        <mxCell id="zvuMkgdrvlHbQfHziqRH-31" style="edgeStyle=orthogonalEdgeStyle;rounded=0;orthogonalLoop=1;jettySize=auto;html=1;entryX=0;entryY=0.5;entryDx=0;entryDy=0;" edge="1" parent="1" source="zvuMkgdrvlHbQfHziqRH-22" target="zvuMkgdrvlHbQfHziqRH-26">
          <mxGeometry relative="1" as="geometry" />
        </mxCell>
        <mxCell id="zvuMkgdrvlHbQfHziqRH-32" style="edgeStyle=orthogonalEdgeStyle;rounded=0;orthogonalLoop=1;jettySize=auto;html=1;entryX=0;entryY=0.5;entryDx=0;entryDy=0;" edge="1" parent="1" source="zvuMkgdrvlHbQfHziqRH-22" target="zvuMkgdrvlHbQfHziqRH-27">
          <mxGeometry relative="1" as="geometry" />
        </mxCell>
        <mxCell id="zvuMkgdrvlHbQfHziqRH-33" style="edgeStyle=orthogonalEdgeStyle;rounded=0;orthogonalLoop=1;jettySize=auto;html=1;entryX=0;entryY=0.5;entryDx=0;entryDy=0;" edge="1" parent="1" source="zvuMkgdrvlHbQfHziqRH-22" target="zvuMkgdrvlHbQfHziqRH-28">
          <mxGeometry relative="1" as="geometry" />
        </mxCell>
        <mxCell id="zvuMkgdrvlHbQfHziqRH-34" style="edgeStyle=orthogonalEdgeStyle;rounded=0;orthogonalLoop=1;jettySize=auto;html=1;entryX=0;entryY=0.5;entryDx=0;entryDy=0;" edge="1" parent="1" source="zvuMkgdrvlHbQfHziqRH-22" target="zvuMkgdrvlHbQfHziqRH-29">
          <mxGeometry relative="1" as="geometry" />
        </mxCell>
        <mxCell id="zvuMkgdrvlHbQfHziqRH-22" value="Поля формы" style="text;html=1;strokeColor=none;fillColor=none;align=center;verticalAlign=middle;whiteSpace=wrap;rounded=0;" vertex="1" parent="1">
          <mxGeometry x="390" y="682.5" width="80" height="30" as="geometry" />
        </mxCell>
        <mxCell id="zvuMkgdrvlHbQfHziqRH-23" value="Кнопка заказать" style="rounded=0;whiteSpace=wrap;html=1;" vertex="1" parent="1">
          <mxGeometry x="340" y="1139" width="120" height="30" as="geometry" />
        </mxCell>
        <mxCell id="zvuMkgdrvlHbQfHziqRH-37" value="" style="edgeStyle=orthogonalEdgeStyle;rounded=0;orthogonalLoop=1;jettySize=auto;html=1;" edge="1" parent="1" source="zvuMkgdrvlHbQfHziqRH-26">
          <mxGeometry relative="1" as="geometry">
            <mxPoint x="710" y="370" as="targetPoint" />
            <Array as="points">
              <mxPoint x="650" y="470" />
              <mxPoint x="650" y="370" />
            </Array>
          </mxGeometry>
        </mxCell>
        <mxCell id="zvuMkgdrvlHbQfHziqRH-44" value="" style="edgeStyle=orthogonalEdgeStyle;rounded=0;orthogonalLoop=1;jettySize=auto;html=1;" edge="1" parent="1" source="zvuMkgdrvlHbQfHziqRH-26" target="zvuMkgdrvlHbQfHziqRH-43">
          <mxGeometry relative="1" as="geometry" />
        </mxCell>
        <mxCell id="zvuMkgdrvlHbQfHziqRH-57" value="" style="edgeStyle=orthogonalEdgeStyle;rounded=0;orthogonalLoop=1;jettySize=auto;html=1;" edge="1" parent="1" source="zvuMkgdrvlHbQfHziqRH-26" target="zvuMkgdrvlHbQfHziqRH-40">
          <mxGeometry relative="1" as="geometry">
            <Array as="points">
              <mxPoint x="650" y="470" />
              <mxPoint x="650" y="490" />
            </Array>
          </mxGeometry>
        </mxCell>
        <mxCell id="zvuMkgdrvlHbQfHziqRH-26" value="Имя" style="text;html=1;strokeColor=none;fillColor=none;align=center;verticalAlign=middle;whiteSpace=wrap;rounded=0;" vertex="1" parent="1">
          <mxGeometry x="530" y="455" width="60" height="30" as="geometry" />
        </mxCell>
        <mxCell id="zvuMkgdrvlHbQfHziqRH-61" value="" style="edgeStyle=orthogonalEdgeStyle;rounded=0;orthogonalLoop=1;jettySize=auto;html=1;entryX=0;entryY=0.5;entryDx=0;entryDy=0;" edge="1" parent="1" source="zvuMkgdrvlHbQfHziqRH-27" target="zvuMkgdrvlHbQfHziqRH-60">
          <mxGeometry relative="1" as="geometry" />
        </mxCell>
        <mxCell id="zvuMkgdrvlHbQfHziqRH-63" value="" style="edgeStyle=orthogonalEdgeStyle;rounded=0;orthogonalLoop=1;jettySize=auto;html=1;" edge="1" parent="1" source="zvuMkgdrvlHbQfHziqRH-27" target="zvuMkgdrvlHbQfHziqRH-62">
          <mxGeometry relative="1" as="geometry" />
        </mxCell>
        <mxCell id="zvuMkgdrvlHbQfHziqRH-27" value="Фамилия" style="text;html=1;strokeColor=none;fillColor=none;align=center;verticalAlign=middle;whiteSpace=wrap;rounded=0;" vertex="1" parent="1">
          <mxGeometry x="530" y="625" width="60" height="30" as="geometry" />
        </mxCell>
        <mxCell id="zvuMkgdrvlHbQfHziqRH-69" style="edgeStyle=orthogonalEdgeStyle;rounded=0;orthogonalLoop=1;jettySize=auto;html=1;entryX=0;entryY=0.667;entryDx=0;entryDy=0;entryPerimeter=0;" edge="1" parent="1" source="zvuMkgdrvlHbQfHziqRH-28" target="zvuMkgdrvlHbQfHziqRH-68">
          <mxGeometry relative="1" as="geometry" />
        </mxCell>
        <mxCell id="zvuMkgdrvlHbQfHziqRH-28" value="Отчество" style="text;html=1;strokeColor=none;fillColor=none;align=center;verticalAlign=middle;whiteSpace=wrap;rounded=0;" vertex="1" parent="1">
          <mxGeometry x="530" y="705" width="60" height="30" as="geometry" />
        </mxCell>
        <mxCell id="zvuMkgdrvlHbQfHziqRH-29" value="Почта" style="text;html=1;strokeColor=none;fillColor=none;align=center;verticalAlign=middle;whiteSpace=wrap;rounded=0;" vertex="1" parent="1">
          <mxGeometry x="530" y="845" width="60" height="30" as="geometry" />
        </mxCell>
        <mxCell id="zvuMkgdrvlHbQfHziqRH-36" value="Русские буквы" style="text;html=1;strokeColor=none;fillColor=none;align=center;verticalAlign=middle;whiteSpace=wrap;rounded=0;" vertex="1" parent="1">
          <mxGeometry x="710" y="360" width="90" height="30" as="geometry" />
        </mxCell>
        <mxCell id="zvuMkgdrvlHbQfHziqRH-50" value="" style="edgeStyle=orthogonalEdgeStyle;rounded=0;orthogonalLoop=1;jettySize=auto;html=1;" edge="1" parent="1" source="zvuMkgdrvlHbQfHziqRH-40" target="zvuMkgdrvlHbQfHziqRH-49">
          <mxGeometry relative="1" as="geometry" />
        </mxCell>
        <mxCell id="zvuMkgdrvlHbQfHziqRH-52" value="" style="edgeStyle=orthogonalEdgeStyle;rounded=0;orthogonalLoop=1;jettySize=auto;html=1;entryX=0;entryY=0.5;entryDx=0;entryDy=0;" edge="1" parent="1" source="zvuMkgdrvlHbQfHziqRH-40" target="zvuMkgdrvlHbQfHziqRH-51">
          <mxGeometry relative="1" as="geometry" />
        </mxCell>
        <mxCell id="zvuMkgdrvlHbQfHziqRH-55" value="" style="edgeStyle=orthogonalEdgeStyle;rounded=0;orthogonalLoop=1;jettySize=auto;html=1;entryX=0;entryY=0.5;entryDx=0;entryDy=0;" edge="1" parent="1" source="zvuMkgdrvlHbQfHziqRH-40" target="zvuMkgdrvlHbQfHziqRH-54">
          <mxGeometry relative="1" as="geometry" />
        </mxCell>
        <mxCell id="zvuMkgdrvlHbQfHziqRH-40" value="Кол-во знаков" style="text;html=1;strokeColor=none;fillColor=none;align=center;verticalAlign=middle;whiteSpace=wrap;rounded=0;" vertex="1" parent="1">
          <mxGeometry x="700" y="475" width="80" height="30" as="geometry" />
        </mxCell>
        <mxCell id="zvuMkgdrvlHbQfHziqRH-43" value="Аглийские буквы" style="text;html=1;strokeColor=none;fillColor=none;align=center;verticalAlign=middle;whiteSpace=wrap;rounded=0;" vertex="1" parent="1">
          <mxGeometry x="710" y="425" width="100" height="30" as="geometry" />
        </mxCell>
        <mxCell id="zvuMkgdrvlHbQfHziqRH-49" value="От 2 до 25" style="text;html=1;strokeColor=none;fillColor=none;align=center;verticalAlign=middle;whiteSpace=wrap;rounded=0;" vertex="1" parent="1">
          <mxGeometry x="880" y="475" width="60" height="30" as="geometry" />
        </mxCell>
        <mxCell id="zvuMkgdrvlHbQfHziqRH-51" value="Меньше 2" style="text;html=1;strokeColor=none;fillColor=none;align=center;verticalAlign=middle;whiteSpace=wrap;rounded=0;" vertex="1" parent="1">
          <mxGeometry x="880" y="435" width="60" height="30" as="geometry" />
        </mxCell>
        <mxCell id="zvuMkgdrvlHbQfHziqRH-54" value="Больше 25" style="text;html=1;strokeColor=none;fillColor=none;align=center;verticalAlign=middle;whiteSpace=wrap;rounded=0;" vertex="1" parent="1">
          <mxGeometry x="880" y="515" width="60" height="30" as="geometry" />
        </mxCell>
        <mxCell id="zvuMkgdrvlHbQfHziqRH-82" value="" style="edgeStyle=orthogonalEdgeStyle;rounded=0;orthogonalLoop=1;jettySize=auto;html=1;exitX=1.005;exitY=0.597;exitDx=0;exitDy=0;exitPerimeter=0;" edge="1" parent="1" source="zvuMkgdrvlHbQfHziqRH-58" target="zvuMkgdrvlHbQfHziqRH-81">
          <mxGeometry relative="1" as="geometry">
            <mxPoint x="660" y="1034" as="sourcePoint" />
            <Array as="points">
              <mxPoint x="641" y="1054" />
              <mxPoint x="710" y="1054" />
              <mxPoint x="710" y="1014" />
            </Array>
          </mxGeometry>
        </mxCell>
        <mxCell id="zvuMkgdrvlHbQfHziqRH-84" value="" style="edgeStyle=orthogonalEdgeStyle;rounded=0;orthogonalLoop=1;jettySize=auto;html=1;entryX=0;entryY=0.5;entryDx=0;entryDy=0;" edge="1" parent="1" source="zvuMkgdrvlHbQfHziqRH-58" target="zvuMkgdrvlHbQfHziqRH-83">
          <mxGeometry relative="1" as="geometry">
            <Array as="points">
              <mxPoint x="710" y="1054" />
              <mxPoint x="710" y="1079" />
            </Array>
          </mxGeometry>
        </mxCell>
        <mxCell id="zvuMkgdrvlHbQfHziqRH-86" value="" style="edgeStyle=orthogonalEdgeStyle;rounded=0;orthogonalLoop=1;jettySize=auto;html=1;" edge="1" parent="1" source="zvuMkgdrvlHbQfHziqRH-58" target="zvuMkgdrvlHbQfHziqRH-85">
          <mxGeometry relative="1" as="geometry" />
        </mxCell>
        <mxCell id="zvuMkgdrvlHbQfHziqRH-100" value="" style="edgeStyle=orthogonalEdgeStyle;rounded=0;orthogonalLoop=1;jettySize=auto;html=1;entryX=0;entryY=0.5;entryDx=0;entryDy=0;" edge="1" parent="1" source="zvuMkgdrvlHbQfHziqRH-58" target="zvuMkgdrvlHbQfHziqRH-99">
          <mxGeometry relative="1" as="geometry">
            <Array as="points">
              <mxPoint x="710" y="1054" />
              <mxPoint x="710" y="1124" />
            </Array>
          </mxGeometry>
        </mxCell>
        <mxCell id="zvuMkgdrvlHbQfHziqRH-129" value="" style="edgeStyle=orthogonalEdgeStyle;rounded=0;orthogonalLoop=1;jettySize=auto;html=1;fontSize=10;entryX=0;entryY=0.5;entryDx=0;entryDy=0;" edge="1" parent="1" source="zvuMkgdrvlHbQfHziqRH-58" target="zvuMkgdrvlHbQfHziqRH-128">
          <mxGeometry relative="1" as="geometry">
            <Array as="points">
              <mxPoint x="710" y="1054" />
              <mxPoint x="710" y="1205" />
            </Array>
          </mxGeometry>
        </mxCell>
        <mxCell id="zvuMkgdrvlHbQfHziqRH-58" value="Номер телефона" style="text;html=1;strokeColor=none;fillColor=none;align=center;verticalAlign=middle;whiteSpace=wrap;rounded=0;" vertex="1" parent="1">
          <mxGeometry x="540" y="1039" width="100" height="30" as="geometry" />
        </mxCell>
        <mxCell id="zvuMkgdrvlHbQfHziqRH-72" value="" style="edgeStyle=orthogonalEdgeStyle;rounded=0;orthogonalLoop=1;jettySize=auto;html=1;exitX=1;exitY=0.5;exitDx=0;exitDy=0;entryX=0;entryY=0.5;entryDx=0;entryDy=0;" edge="1" parent="1" source="zvuMkgdrvlHbQfHziqRH-59" target="zvuMkgdrvlHbQfHziqRH-71">
          <mxGeometry relative="1" as="geometry">
            <mxPoint x="600" y="855" as="sourcePoint" />
            <Array as="points">
              <mxPoint x="620" y="860" />
              <mxPoint x="620" y="810" />
            </Array>
          </mxGeometry>
        </mxCell>
        <mxCell id="zvuMkgdrvlHbQfHziqRH-74" value="" style="edgeStyle=orthogonalEdgeStyle;rounded=0;orthogonalLoop=1;jettySize=auto;html=1;" edge="1" parent="1" source="zvuMkgdrvlHbQfHziqRH-59" target="zvuMkgdrvlHbQfHziqRH-73">
          <mxGeometry relative="1" as="geometry">
            <Array as="points">
              <mxPoint x="620" y="860" />
              <mxPoint x="620" y="840" />
            </Array>
          </mxGeometry>
        </mxCell>
        <mxCell id="zvuMkgdrvlHbQfHziqRH-76" value="" style="edgeStyle=orthogonalEdgeStyle;rounded=0;orthogonalLoop=1;jettySize=auto;html=1;entryX=0;entryY=0.5;entryDx=0;entryDy=0;" edge="1" parent="1" source="zvuMkgdrvlHbQfHziqRH-59" target="zvuMkgdrvlHbQfHziqRH-75">
          <mxGeometry relative="1" as="geometry">
            <Array as="points">
              <mxPoint x="620" y="860" />
              <mxPoint x="620" y="870" />
            </Array>
          </mxGeometry>
        </mxCell>
        <mxCell id="zvuMkgdrvlHbQfHziqRH-78" value="" style="edgeStyle=orthogonalEdgeStyle;rounded=0;orthogonalLoop=1;jettySize=auto;html=1;entryX=0;entryY=0.5;entryDx=0;entryDy=0;" edge="1" parent="1" source="zvuMkgdrvlHbQfHziqRH-59" target="zvuMkgdrvlHbQfHziqRH-77">
          <mxGeometry relative="1" as="geometry">
            <Array as="points">
              <mxPoint x="620" y="860" />
              <mxPoint x="620" y="890" />
            </Array>
          </mxGeometry>
        </mxCell>
        <mxCell id="zvuMkgdrvlHbQfHziqRH-80" value="" style="edgeStyle=orthogonalEdgeStyle;rounded=0;orthogonalLoop=1;jettySize=auto;html=1;entryX=0;entryY=0.5;entryDx=0;entryDy=0;" edge="1" parent="1" source="zvuMkgdrvlHbQfHziqRH-59" target="zvuMkgdrvlHbQfHziqRH-79">
          <mxGeometry relative="1" as="geometry">
            <Array as="points">
              <mxPoint x="620" y="860" />
              <mxPoint x="620" y="910" />
            </Array>
          </mxGeometry>
        </mxCell>
        <mxCell id="zvuMkgdrvlHbQfHziqRH-108" value="" style="edgeStyle=orthogonalEdgeStyle;rounded=0;orthogonalLoop=1;jettySize=auto;html=1;entryX=0;entryY=0.5;entryDx=0;entryDy=0;" edge="1" parent="1" source="zvuMkgdrvlHbQfHziqRH-59" target="zvuMkgdrvlHbQfHziqRH-114">
          <mxGeometry relative="1" as="geometry">
            <mxPoint x="675" y="930" as="targetPoint" />
            <Array as="points">
              <mxPoint x="620" y="860" />
              <mxPoint x="620" y="940" />
            </Array>
          </mxGeometry>
        </mxCell>
        <mxCell id="zvuMkgdrvlHbQfHziqRH-59" value="Почта" style="text;html=1;strokeColor=none;fillColor=none;align=center;verticalAlign=middle;whiteSpace=wrap;rounded=0;" vertex="1" parent="1">
          <mxGeometry x="530" y="845" width="60" height="30" as="geometry" />
        </mxCell>
        <mxCell id="zvuMkgdrvlHbQfHziqRH-60" value="Русские буквы" style="text;html=1;strokeColor=none;fillColor=none;align=center;verticalAlign=middle;whiteSpace=wrap;rounded=0;" vertex="1" parent="1">
          <mxGeometry x="700" y="545" width="100" height="30" as="geometry" />
        </mxCell>
        <mxCell id="zvuMkgdrvlHbQfHziqRH-62" value="Английские буквы" style="text;html=1;strokeColor=none;fillColor=none;align=center;verticalAlign=middle;whiteSpace=wrap;rounded=0;" vertex="1" parent="1">
          <mxGeometry x="700" y="625" width="110" height="30" as="geometry" />
        </mxCell>
        <mxCell id="zvuMkgdrvlHbQfHziqRH-67" value="Русские буквы" style="text;html=1;strokeColor=none;fillColor=none;align=center;verticalAlign=middle;whiteSpace=wrap;rounded=0;" vertex="1" parent="1">
          <mxGeometry x="700" y="675" width="120" height="30" as="geometry" />
        </mxCell>
        <mxCell id="zvuMkgdrvlHbQfHziqRH-68" value="Английские буквы" style="text;html=1;strokeColor=none;fillColor=none;align=center;verticalAlign=middle;whiteSpace=wrap;rounded=0;" vertex="1" parent="1">
          <mxGeometry x="700" y="730" width="120" height="30" as="geometry" />
        </mxCell>
        <mxCell id="zvuMkgdrvlHbQfHziqRH-70" style="edgeStyle=orthogonalEdgeStyle;rounded=0;orthogonalLoop=1;jettySize=auto;html=1;entryX=-0.006;entryY=0.452;entryDx=0;entryDy=0;entryPerimeter=0;exitX=1;exitY=0.5;exitDx=0;exitDy=0;" edge="1" parent="1" source="zvuMkgdrvlHbQfHziqRH-28" target="zvuMkgdrvlHbQfHziqRH-67">
          <mxGeometry relative="1" as="geometry">
            <mxPoint x="600" y="765" as="sourcePoint" />
            <mxPoint x="680" y="815.01" as="targetPoint" />
          </mxGeometry>
        </mxCell>
        <mxCell id="zvuMkgdrvlHbQfHziqRH-71" value="Английские буквы" style="text;html=1;strokeColor=none;fillColor=none;align=center;verticalAlign=middle;whiteSpace=wrap;rounded=0;" vertex="1" parent="1">
          <mxGeometry x="680" y="795" width="110" height="30" as="geometry" />
        </mxCell>
        <mxCell id="zvuMkgdrvlHbQfHziqRH-73" value="Цифры" style="text;html=1;strokeColor=none;fillColor=none;align=center;verticalAlign=middle;whiteSpace=wrap;rounded=0;" vertex="1" parent="1">
          <mxGeometry x="680" y="825" width="60" height="30" as="geometry" />
        </mxCell>
        <mxCell id="zvuMkgdrvlHbQfHziqRH-75" value="Тире" style="text;html=1;strokeColor=none;fillColor=none;align=center;verticalAlign=middle;whiteSpace=wrap;rounded=0;" vertex="1" parent="1">
          <mxGeometry x="680" y="855" width="60" height="30" as="geometry" />
        </mxCell>
        <mxCell id="zvuMkgdrvlHbQfHziqRH-77" value="Точка" style="text;html=1;strokeColor=none;fillColor=none;align=center;verticalAlign=middle;whiteSpace=wrap;rounded=0;" vertex="1" parent="1">
          <mxGeometry x="680" y="875" width="50" height="30" as="geometry" />
        </mxCell>
        <mxCell id="zvuMkgdrvlHbQfHziqRH-79" value="Знак @" style="text;html=1;strokeColor=none;fillColor=none;align=center;verticalAlign=middle;whiteSpace=wrap;rounded=0;" vertex="1" parent="1">
          <mxGeometry x="675" y="895" width="60" height="30" as="geometry" />
        </mxCell>
        <mxCell id="zvuMkgdrvlHbQfHziqRH-81" value="цифры" style="text;html=1;strokeColor=none;fillColor=none;align=center;verticalAlign=middle;whiteSpace=wrap;rounded=0;" vertex="1" parent="1">
          <mxGeometry x="780" y="999" width="100" height="30" as="geometry" />
        </mxCell>
        <mxCell id="zvuMkgdrvlHbQfHziqRH-83" value="Знак +" style="text;html=1;strokeColor=none;fillColor=none;align=center;verticalAlign=middle;whiteSpace=wrap;rounded=0;" vertex="1" parent="1">
          <mxGeometry x="785" y="1069" width="90" height="20" as="geometry" />
        </mxCell>
        <mxCell id="zvuMkgdrvlHbQfHziqRH-85" value="+7 в начале" style="text;html=1;strokeColor=none;fillColor=none;align=center;verticalAlign=middle;whiteSpace=wrap;rounded=0;" vertex="1" parent="1">
          <mxGeometry x="780" y="1029" width="80" height="30" as="geometry" />
        </mxCell>
        <mxCell id="zvuMkgdrvlHbQfHziqRH-89" value="Язык" style="text;html=1;strokeColor=none;fillColor=none;align=center;verticalAlign=middle;whiteSpace=wrap;rounded=0;" vertex="1" parent="1">
          <mxGeometry x="384" y="1230" width="60" height="30" as="geometry" />
        </mxCell>
        <mxCell id="zvuMkgdrvlHbQfHziqRH-91" value="Обратная связь" style="text;html=1;strokeColor=none;fillColor=none;align=center;verticalAlign=middle;whiteSpace=wrap;rounded=0;" vertex="1" parent="1">
          <mxGeometry x="380" y="1295" width="100" height="30" as="geometry" />
        </mxCell>
        <mxCell id="zvuMkgdrvlHbQfHziqRH-93" value="Пользовательское соглашение" style="text;html=1;strokeColor=none;fillColor=none;align=center;verticalAlign=middle;whiteSpace=wrap;rounded=0;" vertex="1" parent="1">
          <mxGeometry x="380" y="1350" width="180" height="30" as="geometry" />
        </mxCell>
        <mxCell id="zvuMkgdrvlHbQfHziqRH-95" value="" style="edgeStyle=orthogonalEdgeStyle;rounded=0;orthogonalLoop=1;jettySize=auto;html=1;exitX=1;exitY=0.5;exitDx=0;exitDy=0;entryX=0;entryY=0.5;entryDx=0;entryDy=0;" edge="1" parent="1" source="zvuMkgdrvlHbQfHziqRH-16" target="zvuMkgdrvlHbQfHziqRH-93">
          <mxGeometry relative="1" as="geometry">
            <mxPoint x="310" y="1320" as="sourcePoint" />
            <mxPoint x="380" y="1320" as="targetPoint" />
            <Array as="points">
              <mxPoint x="340" y="1310" />
              <mxPoint x="340" y="1365" />
            </Array>
          </mxGeometry>
        </mxCell>
        <mxCell id="zvuMkgdrvlHbQfHziqRH-96" value="Яндекс.Движ" style="text;html=1;strokeColor=none;fillColor=none;align=center;verticalAlign=middle;whiteSpace=wrap;rounded=0;" vertex="1" parent="1">
          <mxGeometry x="390" y="1399" width="80" height="30" as="geometry" />
        </mxCell>
        <mxCell id="zvuMkgdrvlHbQfHziqRH-98" value="" style="edgeStyle=orthogonalEdgeStyle;rounded=0;orthogonalLoop=1;jettySize=auto;html=1;exitX=1;exitY=0.5;exitDx=0;exitDy=0;entryX=0;entryY=0.5;entryDx=0;entryDy=0;" edge="1" parent="1" source="zvuMkgdrvlHbQfHziqRH-16" target="zvuMkgdrvlHbQfHziqRH-96">
          <mxGeometry relative="1" as="geometry">
            <mxPoint x="310" y="1320" as="sourcePoint" />
            <mxPoint x="380" y="1320" as="targetPoint" />
            <Array as="points">
              <mxPoint x="340" y="1310" />
              <mxPoint x="340" y="1414" />
            </Array>
          </mxGeometry>
        </mxCell>
        <mxCell id="zvuMkgdrvlHbQfHziqRH-123" value="" style="edgeStyle=orthogonalEdgeStyle;rounded=0;orthogonalLoop=1;jettySize=auto;html=1;fontSize=10;entryX=0;entryY=0.5;entryDx=0;entryDy=0;" edge="1" parent="1" source="zvuMkgdrvlHbQfHziqRH-99" target="zvuMkgdrvlHbQfHziqRH-122">
          <mxGeometry relative="1" as="geometry" />
        </mxCell>
        <mxCell id="zvuMkgdrvlHbQfHziqRH-99" value="Кол-во знаков" style="text;html=1;strokeColor=none;fillColor=none;align=center;verticalAlign=middle;whiteSpace=wrap;rounded=0;" vertex="1" parent="1">
          <mxGeometry x="780" y="1109" width="100" height="30" as="geometry" />
        </mxCell>
        <mxCell id="zvuMkgdrvlHbQfHziqRH-101" value="Прокрутка до предзаказа" style="text;html=1;strokeColor=none;fillColor=none;align=center;verticalAlign=middle;whiteSpace=wrap;rounded=0;" vertex="1" parent="1">
          <mxGeometry x="720" y="100" width="140" height="30" as="geometry" />
        </mxCell>
        <mxCell id="zvuMkgdrvlHbQfHziqRH-103" value="Прокрутка до блока информации" style="text;html=1;strokeColor=none;fillColor=none;align=center;verticalAlign=middle;whiteSpace=wrap;rounded=0;" vertex="1" parent="1">
          <mxGeometry x="720" y="180" width="190" height="30" as="geometry" />
        </mxCell>
        <mxCell id="zvuMkgdrvlHbQfHziqRH-106" style="edgeStyle=orthogonalEdgeStyle;rounded=0;orthogonalLoop=1;jettySize=auto;html=1;entryX=0;entryY=0.5;entryDx=0;entryDy=0;exitX=1;exitY=0.5;exitDx=0;exitDy=0;" edge="1" parent="1" source="zvuMkgdrvlHbQfHziqRH-22" target="zvuMkgdrvlHbQfHziqRH-58">
          <mxGeometry relative="1" as="geometry">
            <mxPoint x="470" y="771.5" as="sourcePoint" />
            <mxPoint x="540" y="944" as="targetPoint" />
            <Array as="points">
              <mxPoint x="500" y="698" />
              <mxPoint x="500" y="1054" />
            </Array>
          </mxGeometry>
        </mxCell>
        <mxCell id="zvuMkgdrvlHbQfHziqRH-116" value="" style="edgeStyle=orthogonalEdgeStyle;rounded=0;orthogonalLoop=1;jettySize=auto;html=1;fontSize=10;entryX=0;entryY=0.5;entryDx=0;entryDy=0;" edge="1" parent="1" source="zvuMkgdrvlHbQfHziqRH-114" target="zvuMkgdrvlHbQfHziqRH-115">
          <mxGeometry relative="1" as="geometry" />
        </mxCell>
        <mxCell id="zvuMkgdrvlHbQfHziqRH-119" value="" style="edgeStyle=orthogonalEdgeStyle;rounded=0;orthogonalLoop=1;jettySize=auto;html=1;fontSize=10;" edge="1" parent="1" source="zvuMkgdrvlHbQfHziqRH-114" target="zvuMkgdrvlHbQfHziqRH-118">
          <mxGeometry relative="1" as="geometry" />
        </mxCell>
        <mxCell id="zvuMkgdrvlHbQfHziqRH-114" value="Кол-во знаков" style="text;html=1;strokeColor=none;fillColor=none;align=center;verticalAlign=middle;whiteSpace=wrap;rounded=0;fontSize=10;" vertex="1" parent="1">
          <mxGeometry x="690" y="925" width="80" height="30" as="geometry" />
        </mxCell>
        <mxCell id="zvuMkgdrvlHbQfHziqRH-115" value="Меньше 5" style="text;html=1;strokeColor=none;fillColor=none;align=center;verticalAlign=middle;whiteSpace=wrap;rounded=0;fontSize=10;" vertex="1" parent="1">
          <mxGeometry x="820" y="875" width="80" height="30" as="geometry" />
        </mxCell>
        <mxCell id="zvuMkgdrvlHbQfHziqRH-118" value="От 5 до 50" style="text;html=1;strokeColor=none;fillColor=none;align=center;verticalAlign=middle;whiteSpace=wrap;rounded=0;fontSize=10;" vertex="1" parent="1">
          <mxGeometry x="820" y="905" width="80" height="30" as="geometry" />
        </mxCell>
        <mxCell id="zvuMkgdrvlHbQfHziqRH-120" value="Больше 50" style="text;html=1;strokeColor=none;fillColor=none;align=center;verticalAlign=middle;whiteSpace=wrap;rounded=0;fontSize=10;" vertex="1" parent="1">
          <mxGeometry x="820" y="940" width="80" height="35" as="geometry" />
        </mxCell>
        <mxCell id="zvuMkgdrvlHbQfHziqRH-121" value="" style="edgeStyle=orthogonalEdgeStyle;rounded=0;orthogonalLoop=1;jettySize=auto;html=1;fontSize=10;exitX=1;exitY=0.5;exitDx=0;exitDy=0;entryX=0;entryY=0.5;entryDx=0;entryDy=0;" edge="1" parent="1" source="zvuMkgdrvlHbQfHziqRH-114" target="zvuMkgdrvlHbQfHziqRH-120">
          <mxGeometry relative="1" as="geometry">
            <mxPoint x="780" y="950.0000000000002" as="sourcePoint" />
            <mxPoint x="830" y="930.0000000000002" as="targetPoint" />
          </mxGeometry>
        </mxCell>
        <mxCell id="zvuMkgdrvlHbQfHziqRH-122" value="Меньше 10" style="text;html=1;strokeColor=none;fillColor=none;align=center;verticalAlign=middle;whiteSpace=wrap;rounded=0;fontSize=10;" vertex="1" parent="1">
          <mxGeometry x="930" y="1050" width="100" height="30" as="geometry" />
        </mxCell>
        <mxCell id="zvuMkgdrvlHbQfHziqRH-124" value="Больше 12" style="text;html=1;strokeColor=none;fillColor=none;align=center;verticalAlign=middle;whiteSpace=wrap;rounded=0;fontSize=10;" vertex="1" parent="1">
          <mxGeometry x="930" y="1150" width="100" height="30" as="geometry" />
        </mxCell>
        <mxCell id="zvuMkgdrvlHbQfHziqRH-125" value="Введено 11 знаков" style="text;html=1;strokeColor=none;fillColor=none;align=center;verticalAlign=middle;whiteSpace=wrap;rounded=0;fontSize=10;" vertex="1" parent="1">
          <mxGeometry x="930" y="1100" width="100" height="30" as="geometry" />
        </mxCell>
        <mxCell id="zvuMkgdrvlHbQfHziqRH-126" value="" style="edgeStyle=orthogonalEdgeStyle;rounded=0;orthogonalLoop=1;jettySize=auto;html=1;fontSize=10;entryX=0;entryY=0.5;entryDx=0;entryDy=0;exitX=1;exitY=0.5;exitDx=0;exitDy=0;" edge="1" parent="1" source="zvuMkgdrvlHbQfHziqRH-99" target="zvuMkgdrvlHbQfHziqRH-125">
          <mxGeometry relative="1" as="geometry">
            <mxPoint x="890" y="1134.0000000000002" as="sourcePoint" />
            <mxPoint x="940" y="1075" as="targetPoint" />
          </mxGeometry>
        </mxCell>
        <mxCell id="zvuMkgdrvlHbQfHziqRH-127" value="" style="edgeStyle=orthogonalEdgeStyle;rounded=0;orthogonalLoop=1;jettySize=auto;html=1;fontSize=10;entryX=0;entryY=0.5;entryDx=0;entryDy=0;exitX=1;exitY=0.5;exitDx=0;exitDy=0;" edge="1" parent="1" source="zvuMkgdrvlHbQfHziqRH-99" target="zvuMkgdrvlHbQfHziqRH-124">
          <mxGeometry relative="1" as="geometry">
            <mxPoint x="900" y="1144.0000000000002" as="sourcePoint" />
            <mxPoint x="950" y="1085" as="targetPoint" />
          </mxGeometry>
        </mxCell>
        <mxCell id="zvuMkgdrvlHbQfHziqRH-128" value="После +7 ввод в скобках ()" style="text;html=1;strokeColor=none;fillColor=none;align=center;verticalAlign=middle;whiteSpace=wrap;rounded=0;fontSize=10;" vertex="1" parent="1">
          <mxGeometry x="780" y="1190" width="100" height="30" as="geometry" />
        </mxCell>
      </root>
    </mxGraphModel>
  </diagram>
</mxfile>
